<svg id="Capa_1" data-name="Capa 1" xmlns="http://www.w3.org/2000/svg" viewBox="0 0 269.22 601"><defs><style>.cls-1{fill:#010101;}.cls-2,.cls-3{fill:none;stroke-miterlimit:10;}.cls-2{stroke:#67b32e;}.cls-3{stroke:#009640;}</style></defs><polygon class="cls-1" points="233.54 210.84 233.8 211.34 268.67 277.31 9.58 277.31 49.18 205.49 51.79 200.41 228.16 200.41 233.54 210.84"/><polygon class="cls-1" points="68.29 94.76 68.29 95.51 44.1 95.51 44.1 200.41 51.79 200.41 49.18 205.49 9.58 277.31 9.58 54.37 68.29 54.37 68.29 94.76"/><path class="cls-1" d="M268.67,456.86V600.5H9.58V456.86H77l13.47,26.93h98.23l27.59-26.93h52.41Z"/><polygon class="cls-1" points="268.67 277.31 268.67 337.16 246.99 337.16 29.38 337.16 9.58 337.16 9.58 277.31 268.67 277.31"/><polygon class="cls-1" points="263.36 54.37 268.67 277.31 233.8 211.34 233.54 210.84 228.16 200.41 230.72 200.41 230.72 95.51 219.16 95.51 219.16 55.11 219.16 54.37 263.36 54.37"/><polygon class="cls-1" points="266.49 0.5 267.85 54.37 263.36 54.37 219.16 54.37 68.29 54.37 9.58 54.37 0.5 54.37 0.5 0.5 266.49 0.5"/><path class="cls-1" d="M247,337.91v119H216.26l-27.59,26.93H90.44L77,456.86H29.38V337.16H247Z"/><polygon class="cls-1" points="219.16 55.11 219.16 95.51 68.29 95.51 68.29 94.76 68.29 54.37 219.16 54.37 219.16 55.11"/><path class="cls-2" d="M247,456.86h21.68V600.5H9.58V456.86H77l13.47,26.93h98.23l27.59-26.93Z"/><polygon class="cls-2" points="268.67 277.31 268.67 337.16 246.99 337.16 29.38 337.16 9.58 337.16 9.58 277.31 268.67 277.31"/><polygon class="cls-2" points="219.16 95.51 230.72 95.51 230.72 200.41 228.16 200.41 51.79 200.41 44.1 200.41 44.1 95.51 68.29 95.51 219.16 95.51"/><polygon class="cls-2" points="9.58 54.37 0.5 54.37 0.5 0.5 266.49 0.5 267.85 54.37 263.36 54.37 219.16 54.37 68.29 54.37 9.58 54.37"/><line class="cls-2" x1="68.29" y1="54.37" x2="68.29" y2="94.76"/><line class="cls-2" x1="219.16" y1="55.11" x2="219.16" y2="95.51"/><line class="cls-2" x1="233.54" y1="210.84" x2="230.72" y2="205.49"/><polyline class="cls-2" points="263.36 54.37 268.67 277.31 233.8 211.34"/><polyline class="cls-2" points="9.58 54.37 9.58 277.31 49.18 205.49"/><line class="cls-2" x1="29.38" y1="337.91" x2="29.38" y2="456.86"/><line class="cls-2" x1="246.99" y1="337.91" x2="246.99" y2="456.86"/><polyline class="cls-2" points="228.16 200.41 233.54 210.84 233.8 211.34"/><line class="cls-2" x1="49.18" y1="205.49" x2="51.79" y2="200.42"/><line class="cls-3" x1="15.12" y1="461.09" x2="15.12" y2="595.79"/><line class="cls-3" x1="259.97" y1="461.09" x2="259.97" y2="595.79"/><line class="cls-3" x1="14.58" y1="461.09" x2="71.88" y2="461.09"/><line class="cls-3" x1="72.15" y1="460.7" x2="86.45" y2="489.61"/><line class="cls-3" x1="192.89" y1="489.14" x2="85.23" y2="489.61"/><line class="cls-3" x1="221.98" y1="461.09" x2="192.89" y2="489.14"/><line class="cls-3" x1="221.98" y1="461.09" x2="259.97" y2="461.09"/><line class="cls-3" x1="15.12" y1="595.79" x2="259.97" y2="595.79"/><line class="cls-3" x1="220.98" y1="211.03" x2="246.63" y2="262.27"/><line class="cls-3" x1="60.01" y1="210.81" x2="34.36" y2="262.05"/><line class="cls-3" x1="33.99" y1="262.49" x2="247.24" y2="262.49"/><line class="cls-2" x1="33.99" y1="342.58" x2="33.99" y2="456.86"/><line class="cls-2" x1="240.98" y1="342.58" x2="240.98" y2="456.86"/></svg>