<svg xmlns="http://www.w3.org/2000/svg" viewBox="0 0 165.24 61.68"><defs><style>.cls-1,.cls-2{fill:none;stroke:#1d1d1b;stroke-miterlimit:10;}.cls-1{stroke-width:0.75px;}.cls-2{stroke-width:0.25px;}</style></defs><g id="Capa_2" data-name="Capa 2"><g id="Capa_1-2" data-name="Capa 1"><path class="cls-1" d="M164.88,61.56c-3.1-9.63-11.77-31.76-33.78-45.94C114.92,5.2,99.23,4,79.07,2.78A213.27,213.27,0,0,0,4.75,11.56"/><path class="cls-2" d="M4.75,11.56a208.07,208.07,0,0,0,22.36-3.7c10.88-2.42,16-4.5,27.71-6.27A109.46,109.46,0,0,1,68.58.18C77.35-.12,83.75.84,91.43,2a162.86,162.86,0,0,1,22.25,4.85,79.24,79.24,0,0,1,11.12,4.05,56.27,56.27,0,0,1,12.74,7.68,59.82,59.82,0,0,1,6.88,6.68c3.42,3.72,5.48,6,7.48,9.5,2.2,3.89,2,5.24,4.65,8.9,1.92,2.67,3,2.81,4.25,4.85a15.62,15.62,0,0,1,2,9.72"/><polygon class="cls-2" points="5.83 2.39 0.17 14.94 10.88 19.8 0.17 12.11 5.83 2.39"/></g></g></svg>