<svg id="Capa_1" data-name="Capa 1" xmlns="http://www.w3.org/2000/svg" viewBox="0 0 164.5 172.34"><defs><style>.cls-1{fill:none;}.cls-1,.cls-2{stroke:#009245;stroke-miterlimit:10;}.cls-2{fill:#066938;}</style></defs><polygon class="cls-1" points="60.66 13.59 60.66 22.44 51.97 22.44 51.97 42.47 42.2 42.47 42.2 74.77 60.66 74.77 60.66 86.17 23.75 86.17 23.75 95.6 10.46 95.6 10.46 105.61 0.5 105.61 0.5 128.97 10.17 128.97 10.17 137.19 21.21 137.19 21.21 129.49 30.58 129.49 30.58 119.31 41.84 119.31 41.84 129.49 32.61 129.49 32.61 139.11 21.51 139.11 21.51 150.28 10.17 150.28 10.17 171.84 21.21 171.84 21.21 159.91 40.36 159.91 40.36 171.84 82.42 171.84 82.42 159.52 110.11 159.52 110.11 149.53 161.79 149.53 161.79 96.37 152.93 96.37 152.93 120.63 133 120.63 133 86.17 142.74 86.17 142.74 77.12 152.56 77.12 152.56 65.57 164 65.57 164 0.5 132.88 0.5 132.88 22.25 110.67 22.25 110.67 13.01 60.66 13.59"/><polyline class="cls-1" points="142.78 24.18 142.78 33.03 51.97 33.03 51.97 22.44 142.78 22.44"/><line class="cls-1" x1="164" y1="33.03" x2="131.09" y2="33.03"/><polyline class="cls-1" points="134.66 43.43 123.33 43.43 123.33 33.03"/><rect class="cls-2" x="102.13" y="33.03" width="8.36" height="20.41"/><polyline class="cls-1" points="82.25 33.03 82.25 43.24 73.47 43.24 73.47 53.44 82.25 53.44 82.25 65.42 60.84 65.42 60.84 74.77"/><polyline class="cls-1" points="60.84 43.43 60.84 65.42 51.97 65.42 51.97 43.43 59.43 43.43"/><polyline class="cls-1" points="60.66 86.17 132.88 86.17 132.88 76.64 102.13 76.64 102.13 65.57 111.41 65.57 111.41 53.44 124.82 53.44 124.82 65.57 152.89 65.57 152.89 53.28 132.88 53.28 132.88 33.03"/><polyline class="cls-1" points="111.68 85.98 111.68 95.33 123.33 95.33 123.33 86.17"/><polyline class="cls-1" points="131.09 95.33 123.33 95.33 123.33 106.23 91.11 106.23 91.11 97.34 82.25 97.34 82.25 118.69 73.76 118.69 73.76 129.9 60.66 129.9 60.66 119.93 41.84 119.93 41.84 137.69 51.97 137.69 51.97 148.59 41.84 148.59 41.84 161.36"/><polygon class="cls-1" points="72.87 85.98 72.87 95.33 82.25 95.33 82.25 86.17 72.87 85.98"/><rect class="cls-1" x="91.85" y="119.67" width="10.28" height="8.68"/><polygon class="cls-1" points="123.33 119.67 123.33 128.34 134.66 128.34 134.66 120.63 123.33 119.67"/></svg>