<svg id="Capa_1" data-name="Capa 1" xmlns="http://www.w3.org/2000/svg" viewBox="0 0 121 101"><defs><style>.cls-1,.cls-2,.cls-4{fill:none;}.cls-1,.cls-2{stroke:#00983a;}.cls-1,.cls-2,.cls-3,.cls-4{stroke-miterlimit:10;}.cls-2{stroke-width:0.75px;}.cls-3{fill:#009640;}.cls-3,.cls-4{stroke:#009640;}</style></defs><rect class="cls-1" x="0.5" y="0.5" width="120" height="100"/><circle class="cls-1" cx="8.66" cy="9.56" r="4.28"/><circle class="cls-1" cx="8.66" cy="92.13" r="4.28"/><circle class="cls-1" cx="110.29" cy="92.13" r="4.28"/><circle class="cls-1" cx="110.29" cy="9.56" r="4.28"/><polygon class="cls-1" points="10.51 12.27 7.24 12.51 5.4 9.8 6.82 6.85 10.09 6.61 11.93 9.32 10.51 12.27"/><polygon class="cls-1" points="112.14 12.27 108.87 12.51 107.03 9.8 108.45 6.85 111.72 6.61 113.56 9.32 112.14 12.27"/><polygon class="cls-1" points="112.14 94.84 108.87 95.08 107.03 92.38 108.45 89.43 111.72 89.19 113.56 91.89 112.14 94.84"/><polygon class="cls-1" points="10.51 94.84 7.24 95.08 5.4 92.38 6.82 89.43 10.09 89.19 11.93 91.89 10.51 94.84"/><line class="cls-2" x1="8.66" y1="15.07" x2="8.66" y2="59.61"/><line class="cls-2" x1="110.29" y1="15.07" x2="110.29" y2="66.92"/><line class="cls-2" x1="14.8" y1="92.13" x2="45.66" y2="92.13"/><line class="cls-2" x1="49.31" y1="92.13" x2="54.72" y2="92.13"/><line class="cls-2" x1="60.5" y1="92.13" x2="103.17" y2="92.13"/><line class="cls-2" x1="110.29" y1="68.68" x2="110.29" y2="85.93"/><line class="cls-2" x1="14.8" y1="7.92" x2="63.38" y2="7.92"/><line class="cls-2" x1="66.9" y1="7.92" x2="105.06" y2="7.92"/><line class="cls-2" x1="8.66" y1="62.39" x2="8.66" y2="85.93"/><polygon class="cls-3" points="59.71 37.87 64.38 35.91 58.83 47.9 68.71 44.21 55.86 65.78 62.28 49.27 53.58 53.1 59.71 37.87"/><rect class="cls-4" x="42.83" y="31.18" width="36.63" height="36.63" rx="6.99"/></svg>